<svg width="1000" height="1000" viewBox="0 0 1000 1000" fill="none" xmlns="http://www.w3.org/2000/svg">
<path d="M499.335 1000L139.245 900.036L59 0H940.749L860.42 899.895L499.335 1000Z" fill="#264DE4"/>
<path d="M791.649 842.593L860.295 73.5913H499.875V923.484L791.649 842.593Z" fill="#2965F1"/>
<path d="M242.959 407.402L252.853 517.787H499.875V407.402H242.959Z" fill="#EBEBEB"/>
<path d="M223.08 183.978L233.114 294.365H499.875V183.978H499.493H223.08Z" fill="#EBEBEB"/>
<path d="M499.874 694.086L499.39 694.215L376.453 661.019L368.594 572.981H308.856H257.784L273.249 746.303L499.366 809.074L499.874 808.933V694.086Z" fill="#EBEBEB"/>
<path d="M756.083 407.402L776.011 183.978H499.493V294.365H655.038L644.993 407.402H499.493V517.786H635.421L622.608 660.948L499.493 694.178V809.021L725.79 746.303L727.45 727.653L753.39 437.044L756.083 407.402Z" fill="white"/>
</svg>
