<svg width="1000" height="1000" viewBox="0 0 1000 1000" fill="none" xmlns="http://www.w3.org/2000/svg">
<g clip-path="url(#clip0_16_41)">
<path d="M940.749 -1.52588e-05L860.42 899.895L499.335 1000L139.245 900.036L59 -1.52588e-05H940.749Z" fill="#E44D26"/>
<path d="M499.874 923.484L791.648 842.593L860.295 73.5913H499.874V923.484Z" fill="#F16529"/>
<path d="M343.717 294.365H499.875V183.978H499.493H223.079L225.722 213.593L252.852 517.787H499.875V407.402H353.805L343.717 294.365Z" fill="#EBEBEB"/>
<path d="M368.595 572.981H308.857H257.785L273.25 746.303L499.367 809.074L499.875 808.933V694.086L499.391 694.215L376.454 661.019L368.595 572.981Z" fill="#EBEBEB"/>
<path d="M499.493 517.787H635.421L622.608 660.949L499.493 694.178V809.021L725.79 746.303L727.45 727.653L753.39 437.044L756.083 407.402H726.337H499.493V517.787Z" fill="white"/>
<path d="M499.493 294.096V294.365H765.772H766.127L768.342 269.554L773.371 213.593L776.011 183.978H499.493V252.538V294.096Z" fill="white"/>
</g>
<defs>
<clipPath id="clip0_16_41">
<rect width="1000" height="1000" fill="white"/>
</clipPath>
</defs>
</svg>
